<svg xmlns="http://www.w3.org/2000/svg" width="1465" height="1318"><rect id="backgroundrect" width="100%" height="100%" x="0" y="0" fill="none" stroke="none" class=""/><defs><style>.cls-1{fill:#222640;}.cls-2{fill:#fff;}.cls-3{fill:#007c92;}.cls-4{fill:#00607d;}.cls-5{fill:#510000;}.cls-6{fill:#f5a50f;}</style></defs><title>LOGO LAWCN NEG_COR</title><g class="currentLayer"><title>Layer 1</title><g id="Fundo" class=""><rect class="cls-1" x="8.565074836042186e-7" y="0.000009956022097412642" width="1464.6153870007988" height="1318.4616366104667" id="svg_1"/></g><g id="Logo" class=""><path class="cls-3" d="M1406.4915117984551,542.0469428459497 c-15.61,-48.06 -44.15,-84.36 -80.37,-102.22 a139.16,139.16 0 0 0 -28.12,-10.11 c-7.21,-127.68 -140.62,-272 -234.69,-333.13 c-48.86,-31.77 -106.73,-52.08 -163,-57.2 c-62.06,-5.6400000000000015 -120.21,6.83 -168.18,36.07 c-26.9,16.4 -51.23,38.54 -72.22,65.3 c-23.17,-2.59 -49.6,-2 -78.9,2 c-62.32,8.38 -136,31.65 -207.45,65.53 c-92.86,44 -176.71,103.17 -236.1,166.53 c-71.28,76 -107.43,157.86 -104.53,236.58 c3.26,88.59 56.62,187.1 139.25,257.08 c62.09,52.59 132.33,81.4 196.61,81.4 a204.87,204.87 0 0 0 26.27,-1.6600000000000001 c1.11,-0.14 2.21,-0.3200000000000004 3.3200000000000003,-0.4900000000000003 a196.48,196.48 0 0 0 37.55,27 a255,255 0 0 0 101.85,30.84 c5.92,0.4800000000000003 11.61,0.7100000000000006 17.11,0.7100000000000006 c47.35,0 80.15,-17 120.56,-38 c16.53,-8.57 35.27,-18.29 57.16,-27.82 c93.18,-40.59 159.28,-42 217.59,-43.27 c57.21,-1.23 107.17,-2.33 160.69,-39.94 c2,1.19 3.91,2.33 5.88,3.39 c19.1,10.23 41.35,15.39 65.31,15.39 a194.44,194.44 0 0 0 56.76,-8.92 c63.7,-19.5 122.08,-67.34 152.37,-124.84 C1421.8915117984552,684.1069428459496 1427.7115117984551,607.3969428459498 1406.4915117984551,542.0469428459497 zm-295.2,248.6 c-12.16,-15.45 -19.84,-34.14 -16.81,-50.3 c2.67,-14.22 14.14,-21.42 35.88,-33.94 c15.85,-9.13 34.19,-19.7 50.11,-36.61 C1170.8915117984552,711.5569428459498 1143.9715117984551,757.4269428459497 1111.2915117984553,790.6469428459498 zM657.7815117984551,595.9369428459497 l-23.24,-10 C602.8915117984552,659.4069428459497 570.2015117984552,735.3669428459498 529.6615117984552,794.4269428459497 C494.33151179845527,845.9369428459497 457.07151179845505,877.9369428459497 416.47151179845514,891.5769428459496 A86.09,86.09 0 0 1 406.7915117984551,872.9369428459497 h0 c-23.06,-62.69 36.42,-138.31 56,-163.16 c42.41,-53.92 103.6,-95.82 172.8,-126.2 l-1,2.33 zM646.6715117984552,276.2069428459497 l0.6400000000000008,-2 a340.08,340.08 0 0 1 35,-77.33 c8.64,3 15.91,7 21.57,12 c26.26,23.14 28.45,83.51 6.14,170 c-10.16,39.4 -24.14,79.8 -38,116 a138.32,138.32 0 0 1 -15.5,-16 C607.8315117984553,418.7069428459497 636.6815117984552,308.52694284594975 646.6715117984552,276.2069428459497 zm565,260.86 l-0.24000000000000016,-1.44 c-4.27,-25.12 -5.15,-35.45 2.56,-44.27 h0 c6.28,-7.19 17,-12 29.46,-14.23 C1237.8915117984552,500.74694284594966 1227.3915117984552,520.6369428459498 1211.6315117984552,537.0669428459497 zM758.5015117984551,118.67694284594972 c34.6,-21.09 73.41,-29.94 112.32,-29.94 c59.7,0 119.62,20.84 164.9,50.29 c84.38,54.87 200.75,183.46 211.22,286.64 c-27.52,2.38 -53.74,12.5 -71.12,32.4 c-16.71,19.13 -19.4,39.8 -17.93,59.75 c-37.84,-21.3 -88.8,-35.84 -150.5,-42.4 c-88.33,-9.39 -189.72,-0.7400000000000007 -282.88,23.74 c12.66,-34 25.11,-71.1 34.55,-107.7 c28.49,-110.5 21.39,-182.66 -21.7,-220.62 A104.83,104.83 0 0 0 713.8915117984552,155.38694284594976 A213.16,213.16 0 0 1 758.5015117984551,118.67694284594972 zm393.77,456 c-50.65,19.4 -120.85,25.13 -201.91,16 c-67.43,-7.55 -140.22,-25.47 -193.89,-47.22 c84.38,-20 171.38,-25.71 245.56,-17.81 C1068.4715117984551,532.7969428459497 1121.3415117984553,550.3769428459498 1152.2715117984553,574.7169428459497 zM83.54151179845513,609.5069428459497 C77.99151179845518,458.8269428459497 248.0115117984551,323.8269428459498 395.2815117984551,253.99694284594977 c85.82,-40.69 171.32,-63.23 232.74,-64.16 a400.26,400.26 0 0 0 -29,69.12 l-0.7100000000000006,2.2800000000000002 c-15.22,49.23 -43.85,172.07 19,249.4 A185.74,185.74 0 0 0 634.3815117984552,528.9369428459497 c-90.05,36.29 -162.44,87.35 -211.41,149.62 c-23.87,30.35 -96.5,122.69 -63.68,211.92 h0 c1.09,3 2.3200000000000003,5.86 3.6100000000000003,8.74 c-50.74,-1.6900000000000008 -106.95,-26.1 -158,-69.32 C132.81151179845517,768.7669428459499 86.30151179845518,684.3369428459496 83.54151179845513,609.5069428459497 zm865.61,237.08 c-59.87,1.29 -134.38,2.89 -236.71,47.47 c-23.45,10.22 -43,20.35 -60.24,29.29 c-40.85,21.18 -67.83,35.17 -110.3,31.74 c-27.78,-2.24 -58.2,-11.26 -83.57,-26.09 c106.2,-52.54 167.56,-195 222.69,-323 h0 c4.26,-9.9 9.32,-21.65 14.84,-34.81 c4.55,2.39 9,4.63 13.26,6.72 c60.08,29.43 150.36,53.65 235.6,63.19 a709.55,709.55 0 0 0 78.44,4.5600000000000005 c41.18,0 84.88,-4.15 125.21,-16.12 c-11.56,14.77 -27.06,23.73 -43.27,33.06 c-25,14.38 -53.28,30.68 -60.37,68.46 c-6,32 6.52,65.16 27.13,91.27 C1034.2815117984553,844.7369428459497 997.4315117984552,845.5469428459496 949.1615117984552,846.5869428459496 zm397.32,-127.92 c-23.86,45.31 -71.91,84.58 -122.41,100 c-26.71,8.17 -51.64,8.88 -71.7,2.26 a332.6,332.6 0 0 0 62.89,-95.9 c21.24,-49.82 25.1,-96.82 11.27,-133.81 c35.71,-27.29 58.69,-64.66 67.66,-110 a84.58,84.58 0 0 1 9.56,4 c23.87,11.76 43.26,37.49 54.62,72.46 C1375.511511798455,610.4969428459497 1370.9615117984551,672.1769428459497 1346.4715117984551,718.6669428459497 z" id="svg_54"/><path class="cls-4" d="M655.0315117984551,547.2869428459497 c-7,16.94 -13.46,31.9 -18.68,44 h0 c-31.6,73.38 -64.27,149.25 -104.79,208.29 c-35.86,52.24 -73.73,84.49 -115.09,97.9 c13,13.56 26.35,25.63 42.6,34.62 c40.62,-20.12 77.7,-55 112.22,-105.24 c43.19,-62.93 76.81,-141 109.32,-216.51 h0 c4.3,-10 9.4,-21.82 15,-35.1 c-2.8,-2.15 -5.34,-4.69 -7.8900000000000015,-6.73 C676.4115117984552,560.3969428459498 665.5315117984551,554.2169428459497 655.0315117984551,547.2869428459497 z" id="svg_55"/><path class="cls-4" d="M775.2715117984553,275.29694284594984 c-1.3,-43.81 -14.13,-76.74 -38.13,-97.88 c-31.31,-27.58 -84.94,-37.18 -155.09,-27.75 c-62.08,8.34 -135.49,31.54 -206.71,65.3 c-92.56,43.88 -176.12,102.82 -235.3,166 c-33.59,35.83 -59.49,73 -77,110.39 c-19.46,41.61 -28.55,83.63 -27,124.89 c3.25,88.11 56.34,186.1 138.57,255.75 c33,27.93 69.5,49.94 105.61,63.65 c30.47,11.56 60.36,17.38 89.22,17.38 a208.24,208.24 0 0 0 26.73,-1.71 l0.46,-0.07 c-14.08,-11.89 -23.83,-28.44 -29.87,-46.49 c-51.58,-0.93 -109,-25.48 -161,-69.53 c-72.22,-61.16 -118.8,-145.75 -121.56,-220.75 c-5.5600000000000005,-151 164.49,-286.08 311.8,-355.92 c66.84,-31.69 135.2,-53.38 192.48,-61.08 a329.6,329.6 0 0 1 43.63,-3.15 c33.4,0 58.73,6.5600000000000005 73.19,19.3 c13.58,12 20.92,33.21 21.81,63.15 c0.8500000000000006,28.72 -4.3,64.95 -15.32,107.69 c-10,38.92 -23.8,78.8 -37.48,114.6 c12.84,10.2 26.23,20.45 40.27,29.48 c15.69,-40.12 32.12,-86.48 43.87,-132 C770.5915117984553,349.30694284594983 776.2515117984551,308.54694284594984 775.2715117984553,275.29694284594984 z" id="svg_56"/><path class="cls-4" d="M1404.6415117984552,547.4069428459497 c-15.48,-47.67 -43.76,-83.66 -79.63,-101.34 a137.13,137.13 0 0 0 -26.37,-9.64 c-0.23,16.6 -1.8900000000000001,32.56 -3.64,49.19 a84.58,84.58 0 0 1 8.71,3.68 c24.1,11.88 43.67,37.81 55.1,73 c17.21,53 12.64,114.91 -11.94,161.58 c-24,45.48 -72.18,84.9 -122.86,100.41 c-32.38,9.92 -62.24,8.94 -84.08,-2.7600000000000002 c-26.28,-14.08 -51.94,-49.07 -46.74,-76.77 c2.7600000000000002,-14.69 14.37,-22 36.38,-34.67 c24.46,-14.09 54.91,-31.62 73,-70.84 c17.57,-38.16 11.89,-71.57 7.33,-98.42 c-4.33,-25.47 -5.2,-36 2.8200000000000003,-45.14 c6.49,-7.43 17.57,-12.35 30.48,-14.61 c5,-15.79 7.33,-32.66 5.21,-49.19 c-27.83,2.06 -54.46,12 -72,32.1 c-23.83,27.28 -18.62,57.9 -14,84.91 c4,23.44 7.74,45.57 -3.6,70.2 c-11.64,25.27 -31.84,36.91 -53.24,49.23 c-24.71,14.23 -52.71,30.36 -59.69,67.54 c-9.6,51.14 28.74,105.31 71.34,128.13 c18.89,10.12 40.92,15.22 64.63,15.22 a193,193 0 0 0 56.31,-8.86 c63.29,-19.38 121.3,-66.91 151.39,-124 C1419.8915117984552,688.5669428459496 1425.7315117984551,612.3469428459498 1404.6415117984552,547.4069428459497 z" id="svg_57"/><path class="cls-5" d="M881.2815117984553,532.7269428459497 c-18.9,26.15 -51.18,-9.66 -67.54,-22.09 c-32.86,-25 -60.63,-38.65 -100.88,-51.07 c-31.81,-9.82 -75.51,-15 -98.49,-41.59 c-25.08,-29.06 -23.71,-60.18 -58.72,-88.82 a74.19,74.19 0 0 1 10,37.69 c-25.69,-7.1 -68.86,-71.78 -65.26,-101.46 c3.2,-26.39 7.5600000000000005,-18.86 33.7,-14.26 c7.46,1.31 53.95,12.52 60.45,14.74 c23.23,7.94 21.45,19 41,31.74 c9,5.88 22.68,2.38 34.22,10.29 c34.37,23.58 17.47,101.78 59.62,111.36 c29.57,6.72 43.05,-39.55 68.14,-33.14 c21.49,5.5 0.8900000000000008,18.35 1.3900000000000001,33.56 c1.7000000000000002,51.57 -9.1,3.81 31.14,31.74 c19.2,13.33 4.42,17.55 10.7,34.87 c11.11,30.63 23.57,42.86 65.16,30 c54.37,-16.85 74.19,-37.06 137.13,-13.45 c24.26,9.1 36.75,29 58.78,40.12 s46.49,7.9 65,25.61 c11.6,11.11 10.59,28 22.19,38.91 c5.72,5.38 45.7,23.47 56.18,28.16 c38,17 108.07,11.84 83.24,72.54 c-7.63,18.64 -25,26.31 -31.94,48.51 c-7,22.46 -2,48.39 -16.3,68.56 c-23.85,33.72 -63.75,32.32 -86.79,68 c-26.86,41.6 -50.28,73.49 -87.48,108 c-30.44,28.28 -142.31,111.92 -87,151.46 c-44.7,37.4 -43.31,82.36 -3.23,122.43 c-83.49,40 -112,-63.79 -95.8,-126.49 c19.19,-74.36 22.86,-161 36.92,-243.13 c5.79,-33.83 23.54,-74.6 3.18,-106.22 c-9.27,-14.39 -28.75,-15.56 -39.85,-27.62 c-11.75,-12.77 -16,-27.9 -24.46,-42.36 c-19,-32.55 -31,-47.12 -29.35,-84.61 C867.8915117984552,608.4769428459497 911.0215117984553,570.2269428459497 881.2815117984553,532.7269428459497 z" id="svg_58"/><path class="cls-5" d="M1001.7615117984551,412.8269428459497 c-10.31,-2.48 -24.25,-1.6 -30.26,-8.08 c-18.45,-19.86 -40.9,-19.36 -64.25,-18.67 c13.25,-29.09 69.68,-10.94 96.08,20 z" id="svg_59"/><path class="cls-5" d="M1072.5615117984553,425.49694284594966 c-18.84,3 -34.49,6.59 -50.3,7.52 c-8.88,0.53 -13.33,-6.15 -7.83,-15 C1022.7215117984551,404.6769428459497 1060.6515117984552,406.52694284594975 1072.5615117984553,425.49694284594966 z" id="svg_60"/><path class="cls-6" d="M878.2815117984553,532.7269428459497 c-18.9,26.15 -51.18,-9.66 -67.54,-22.09 c-32.86,-25 -60.63,-38.65 -100.88,-51.07 c-31.81,-9.82 -75.51,-15 -98.49,-41.59 c-25.08,-29.06 -23.71,-60.18 -58.72,-88.82 a74.19,74.19 0 0 1 10,37.69 c-25.69,-7.1 -68.86,-71.78 -65.26,-101.46 c3.2,-26.39 7.5600000000000005,-18.86 33.7,-14.26 c7.46,1.31 53.95,12.52 60.45,14.74 c23.23,7.94 21.45,19 41,31.74 c9,5.88 22.68,2.38 34.22,10.29 c34.37,23.58 17.47,101.78 59.62,111.36 c29.57,6.72 43.05,-39.55 68.14,-33.14 c21.49,5.5 0.8900000000000008,18.35 1.3900000000000001,33.56 c1.7000000000000002,51.57 -9.1,3.81 31.14,31.74 c19.2,13.33 4.42,17.55 10.7,34.87 c11.11,30.63 23.57,42.86 65.16,30 c54.37,-16.85 74.19,-37.06 137.13,-13.45 c24.26,9.1 36.75,29 58.78,40.12 s46.49,7.9 65,25.61 c11.6,11.11 10.59,28 22.19,38.91 c5.72,5.38 45.7,23.47 56.18,28.16 c38,17 108.07,11.84 83.24,72.54 c-7.63,18.64 -25,26.31 -31.94,48.51 c-7,22.46 -2,48.39 -16.3,68.56 c-23.85,33.72 -63.75,32.32 -86.79,68 c-26.86,41.6 -50.28,73.49 -87.48,108 c-30.44,28.28 -142.31,111.92 -87,151.46 c-44.7,37.4 -43.31,82.36 -3.23,122.43 c-83.49,40 -112,-63.79 -95.8,-126.49 c19.19,-74.36 22.86,-161 36.92,-243.13 c5.79,-33.83 23.54,-74.6 3.18,-106.22 c-9.27,-14.39 -28.75,-15.56 -39.85,-27.62 c-11.75,-12.77 -16,-27.9 -24.46,-42.36 c-19,-32.55 -31,-47.12 -29.35,-84.61 C864.8915117984552,608.4769428459497 908.0215117984553,570.2269428459497 878.2815117984553,532.7269428459497 z" id="svg_61"/><path class="cls-6" d="M998.7615117984551,412.8269428459497 c-10.31,-2.48 -24.25,-1.6 -30.26,-8.08 c-18.45,-19.86 -40.9,-19.36 -64.25,-18.67 c13.25,-29.09 69.68,-10.94 96.08,20 z" id="svg_62"/><path class="cls-6" d="M1069.5615117984553,425.49694284594966 c-18.84,3 -34.49,6.59 -50.3,7.52 c-8.88,0.53 -13.33,-6.15 -7.83,-15 C1019.7215117984551,404.6769428459497 1057.6515117984552,406.52694284594975 1069.5615117984553,425.49694284594966 z" id="svg_63"/></g></g></svg>