<?xml version="1.0" encoding="UTF-8" standalone="no"?>
<!-- Created with Inkscape (http://www.inkscape.org/) -->

<svg
   xmlns:dc="http://purl.org/dc/elements/1.1/"
   xmlns:cc="http://creativecommons.org/ns#"
   xmlns:rdf="http://www.w3.org/1999/02/22-rdf-syntax-ns#"
   xmlns:svg="http://www.w3.org/2000/svg"
   xmlns="http://www.w3.org/2000/svg"
   xmlns:sodipodi="http://sodipodi.sourceforge.net/DTD/sodipodi-0.dtd"
   xmlns:inkscape="http://www.inkscape.org/namespaces/inkscape"
   width="800mm"
   height="250mm"
   viewBox="0 0 799.99999 250.00001"
   version="1.1"
   id="svg3823"
   inkscape:version="0.92.5 (2060ec1f9f, 2020-04-08)"
   sodipodi:docname="Logo_com_fundo.svg"
   inkscape:export-filename="/home/paulo/Drive/UFMA/Eventos/2021/III_LAWCN/Site/Logo_com_fundo.png"
   inkscape:export-xdpi="96"
   inkscape:export-ydpi="96">
  <defs
     id="defs3817" />
  <sodipodi:namedview
     id="base"
     pagecolor="#ffffff"
     bordercolor="#666666"
     borderopacity="1.0"
     inkscape:pageopacity="0.0"
     inkscape:pageshadow="2"
     inkscape:zoom="0.3445463"
     inkscape:cx="1495.9837"
     inkscape:cy="644.15238"
     inkscape:document-units="mm"
     inkscape:current-layer="layer1"
     showgrid="false"
     inkscape:window-width="1366"
     inkscape:window-height="703"
     inkscape:window-x="0"
     inkscape:window-y="0"
     inkscape:window-maximized="1" />
  <metadata
     id="metadata3820">
    <rdf:RDF>
      <cc:Work
         rdf:about="">
        <dc:format>image/svg+xml</dc:format>
        <dc:type
           rdf:resource="http://purl.org/dc/dcmitype/StillImage" />
        <dc:title></dc:title>
      </cc:Work>
    </rdf:RDF>
  </metadata>
  <g
     inkscape:label="Camada 1"
     inkscape:groupmode="layer"
     id="layer1"
     transform="translate(0,-47.000012)">
    <g
       id="g7533"
       transform="matrix(1,0,0,1.4316393,0,-128.19687)">
      <path
         d="M 0,122.37502 H 800 V 297.00001 H 0 Z"
         style="opacity:0.5;fill:#720192;fill-opacity:1;stroke-width:0.40363443"
         id="rect3831"
         inkscape:connector-curvature="0" />
    </g>
    <g
       id="Logo"
       class=""
       transform="matrix(0.16986384,0,0,0.17830021,4.8806971,55.300667)">
      <path
         class="cls-3"
         d="m 1406.4915,542.04694 c -15.61,-48.06 -44.15,-84.36 -80.37,-102.22 a 139.16,139.16 0 0 0 -28.12,-10.11 c -7.21,-127.68 -140.62,-272 -234.69,-333.129997 -48.86,-31.77 -106.72999,-52.08 -162.99999,-57.2 -62.06,-5.64 -120.21,6.83 -168.18,36.07 -26.9,16.4 -51.23,38.539997 -72.22,65.299997 -23.17,-2.59 -49.6,-2 -78.9,2 -62.32,8.38 -136,31.65 -207.45,65.53 -92.86,44 -176.71,103.17 -236.1,166.53 -71.279998,76 -107.429998,157.86 -104.529998,236.58 3.26,88.59 56.62,187.1 139.249998,257.08 62.09,52.59 132.33,81.4 196.61,81.4 a 204.87,204.87 0 0 0 26.27,-1.66 c 1.11,-0.14 2.21,-0.32 3.32,-0.49 a 196.48,196.48 0 0 0 37.55,27 255,255 0 0 0 101.85,30.83996 c 5.92,0.48 11.61,0.71 17.11,0.71 47.35,0 80.15,-16.99996 120.56,-37.99996 16.53,-8.57 35.27,-18.29 57.16,-27.82 93.18,-40.59 159.28,-42 217.59,-43.27 57.20999,-1.23 107.16999,-2.33 160.68999,-39.94 2,1.19 3.91,2.33 5.88,3.39 19.1,10.23 41.35,15.39 65.31,15.39 a 194.44,194.44 0 0 0 56.76,-8.92 c 63.7,-19.5 122.08,-67.34 152.37,-124.84 30.68,-58.16 36.5,-134.87 15.28,-200.22 z m -295.2,248.6 c -12.16,-15.45 -19.84,-34.14 -16.81,-50.3 2.67,-14.22 14.14,-21.42 35.88,-33.94 15.85,-9.13 34.19,-19.7 50.11,-36.61 -9.58,41.76 -36.5,87.63 -69.18,120.85 z m -453.50999,-194.71 -23.24,-10 c -31.65,73.47 -64.34,149.43 -104.88,208.49 -35.33,51.51 -72.59,83.51 -113.19,97.15 a 86.09,86.09 0 0 1 -9.68,-18.64 v 0 c -23.06,-62.69 36.42,-138.31 56,-163.16 42.41,-53.92 103.6,-95.82 172.8,-126.2 l -1,2.33 z m -11.11,-319.73 0.64,-2 a 340.08,340.08 0 0 1 35,-77.33 c 8.64,3 15.91,7 21.57,12 26.26,23.14 28.45,83.51 6.14,170 -10.16,39.4 -24.14,79.8 -38,116 a 138.32,138.32 0 0 1 -15.5,-16 c -48.69,-60.17 -19.84,-170.35 -9.85,-202.67 z m 564.99999,260.86 -0.24,-1.44 c -4.27,-25.12 -5.15,-35.45 2.56,-44.27 v 0 c 6.28,-7.19 17,-12 29.46,-14.23 -5.56,23.62 -16.06,43.51 -31.82,59.94 z m -453.16999,-418.39 c 34.6,-21.089997 73.41,-29.939997 112.32,-29.939997 59.7,0 119.62,20.839997 164.89999,50.289997 84.38,54.87 200.75,183.46 211.22,286.64 -27.52,2.38 -53.74,12.5 -71.12,32.4 -16.71,19.13 -19.4,39.8 -17.93,59.75 -37.84,-21.3 -88.8,-35.84 -150.5,-42.4 -88.32999,-9.39 -189.71999,-0.74 -282.87999,23.74 12.66,-34 25.11,-71.1 34.55,-107.7 28.49,-110.5 21.39,-182.66 -21.7,-220.62 a 104.83,104.83 0 0 0 -23.47,-15.45 213.16,213.16 0 0 1 44.61,-36.71 z m 393.76999,456 c -50.65,19.4 -120.85,25.13 -201.90999,16 -67.43,-7.55 -140.22,-25.47 -193.89,-47.22 84.38,-20 171.38,-25.71 245.55999,-17.81 66.44,7.15 119.31,24.73 150.24,49.07 z m -1068.729988,34.83 c -5.55,-150.68 164.469998,-285.68 311.739998,-355.51 85.82,-40.69 171.32,-63.23 232.74,-64.16 a 400.26,400.26 0 0 0 -29,69.12 l -0.71,2.28 c -15.22,49.23 -43.85,172.07 19,249.4 a 185.74,185.74 0 0 0 17.07,18.3 c -90.05,36.29 -162.44,87.35 -211.41,149.62 -23.87,30.35 -96.5,122.69 -63.68,211.92 v 0 c 1.09,3 2.32,5.86 3.61,8.74 -50.74,-1.69 -106.95,-26.1 -158,-69.32 -72.09,-61.13 -118.599998,-145.56 -121.359998,-220.39 z m 865.609998,237.08 c -59.87,1.29 -134.38,2.89 -236.71,47.47 -23.45,10.22 -43,20.35 -60.24,29.29 -40.85,21.18 -67.83,35.17 -110.3,31.74 -27.78,-2.24 -58.2,-11.26 -83.57,-26.09 106.2,-52.54 167.56,-195 222.69,-323 v 0 c 4.26,-9.9 9.32,-21.65 14.84,-34.81 4.55,2.39 9,4.63 13.26,6.72 60.08,29.43 150.36,53.65 235.6,63.19 a 709.55,709.55 0 0 0 78.43999,4.56 c 41.18,0 84.88,-4.15 125.21,-16.12 -11.56,14.77 -27.06,23.73 -43.27,33.06 -25,14.38 -53.28,30.68 -60.37,68.46 -6,32 6.52,65.16 27.13,91.27 -37.58,22.41 -74.42999,23.22 -122.69999,24.26 z m 397.31999,-127.92 c -23.86,45.31 -71.91,84.58 -122.41,100 -26.71,8.17 -51.64,8.88 -71.7,2.26 a 332.6,332.6 0 0 0 62.89,-95.9 c 21.24,-49.82 25.1,-96.82 11.27,-133.81 35.71,-27.29 58.69,-64.66 67.66,-110 a 84.58,84.58 0 0 1 9.56,4 c 23.87,11.76 43.26,37.49 54.62,72.46 17.15,52.82 12.6,114.5 -11.89,160.99 z"
         id="svg_54"
         inkscape:connector-curvature="0"
         style="fill:#007c92" />
      <path
         class="cls-4"
         d="m 655.03151,547.28694 c -7,16.94 -13.46,31.9 -18.68,44 v 0 c -31.6,73.38 -64.27,149.25 -104.79,208.29 -35.86,52.24 -73.73,84.49 -115.09,97.9 13,13.56 26.35,25.63 42.6,34.62 40.62,-20.12 77.7,-55 112.22,-105.24 43.19,-62.93 76.81,-141 109.32,-216.51 v 0 c 4.3,-10 9.4,-21.82 15,-35.1 -2.8,-2.15 -5.34,-4.69 -7.89,-6.73 -11.31,-8.12 -22.19,-14.3 -32.69,-21.23 z"
         id="svg_55"
         inkscape:connector-curvature="0"
         style="fill:#00607d" />
      <path
         class="cls-4"
         d="m 775.27151,275.29694 c -1.3,-43.81 -14.13,-76.74 -38.13,-97.88 -31.31,-27.58 -84.94,-37.18 -155.09,-27.75 -62.08,8.34 -135.49,31.54 -206.71,65.3 -92.56,43.88 -176.12,102.82 -235.3,166 -33.59,35.83 -59.489998,73 -76.999998,110.39 -19.46,41.61 -28.55,83.63 -27,124.89 3.25,88.11 56.34,186.1 138.569998,255.75 33,27.93 69.5,49.94 105.61,63.65 30.47,11.56 60.36,17.38 89.22,17.38 a 208.24,208.24 0 0 0 26.73,-1.71 l 0.46,-0.07 c -14.08,-11.89 -23.83,-28.44 -29.87,-46.49 -51.58,-0.93 -109,-25.48 -161,-69.53 -72.22,-61.16 -118.799998,-145.75 -121.559998,-220.75 -5.56,-151 164.489998,-286.08 311.799998,-355.92 66.84,-31.69 135.2,-53.38 192.48,-61.08 a 329.6,329.6 0 0 1 43.63,-3.15 c 33.4,0 58.73,6.56 73.19,19.3 13.58,12 20.92,33.21 21.81,63.15 0.85,28.72 -4.3,64.95 -15.32,107.69 -10,38.92 -23.8,78.8 -37.48,114.6 12.84,10.2 26.23,20.45 40.27,29.48 15.69,-40.12 32.12,-86.48 43.87,-132 12.14,-47.24 17.8,-88 16.82,-121.25 z"
         id="svg_56"
         inkscape:connector-curvature="0"
         style="fill:#00607d" />
      <path
         class="cls-4"
         d="m 1404.6415,547.40694 c -15.48,-47.67 -43.76,-83.66 -79.63,-101.34 a 137.13,137.13 0 0 0 -26.37,-9.64 c -0.23,16.6 -1.89,32.56 -3.64,49.19 a 84.58,84.58 0 0 1 8.71,3.68 c 24.1,11.88 43.67,37.81 55.1,73 17.21,53 12.64,114.91 -11.94,161.58 -24,45.48 -72.18,84.9 -122.86,100.41 -32.38,9.92 -62.24,8.94 -84.08,-2.76 -26.28,-14.08 -51.94,-49.07 -46.74,-76.77 2.76,-14.69 14.37,-22 36.38,-34.67 24.46,-14.09 54.91,-31.62 73,-70.84 17.57,-38.16 11.89,-71.57 7.33,-98.42 -4.33,-25.47 -5.2,-36 2.82,-45.14 6.49,-7.43 17.57,-12.35 30.48,-14.61 5,-15.79 7.33,-32.66 5.21,-49.19 -27.83,2.06 -54.46,12 -72,32.1 -23.83,27.28 -18.62,57.9 -14,84.91 4,23.44 7.74,45.57 -3.6,70.2 -11.64,25.27 -31.84,36.91 -53.24,49.23 -24.71,14.23 -52.71,30.36 -59.69,67.54 -9.6,51.14 28.74,105.31 71.34,128.13 18.89,10.12 40.92,15.22 64.63,15.22 a 193,193 0 0 0 56.31,-8.86 c 63.29,-19.38 121.3,-66.91 151.39,-124 30.34,-57.79 36.18,-134.01 15.09,-198.95 z"
         id="svg_57"
         inkscape:connector-curvature="0"
         style="fill:#00607d" />
      <path
         class="cls-5"
         d="m 881.28151,532.72694 c -18.9,26.15 -51.18,-9.66 -67.54,-22.09 -32.86,-25 -60.63,-38.65 -100.88,-51.07 -31.81,-9.82 -75.51,-15 -98.49,-41.59 -25.08,-29.06 -23.71,-60.18 -58.72,-88.82 a 74.19,74.19 0 0 1 10,37.69 c -25.69,-7.1 -68.86,-71.78 -65.26,-101.46 3.2,-26.39 7.56,-18.86 33.7,-14.26 7.46,1.31 53.95,12.52 60.45,14.74 23.23,7.94 21.45,19 41,31.74 9,5.88 22.68,2.38 34.22,10.29 34.37,23.58 17.47,101.78 59.62,111.36 29.57,6.72 43.05,-39.55 68.14,-33.14 21.49,5.5 0.89,18.35 1.39,33.56 1.7,51.57 -9.1,3.81 31.14,31.74 19.2,13.33 4.42,17.55 10.7,34.87 11.11,30.63 23.57,42.86 65.16,30 54.37,-16.85 74.19,-37.06 137.12999,-13.45 24.26,9.1 36.75,29 58.78,40.12 22.03,11.12 46.49,7.9 65,25.61 11.6,11.11 10.59,28 22.19,38.91 5.72,5.38 45.7,23.47 56.18,28.16 38,17 108.07,11.84 83.24,72.54 -7.63,18.64 -25,26.31 -31.94,48.51 -7,22.46 -2,48.39 -16.3,68.56 -23.85,33.72 -63.75,32.32 -86.79,68 -26.86,41.6 -50.28,73.49 -87.48,107.99996 -30.44,28.28 -142.30999,111.92 -87,151.46 -44.69999,37.4 -43.30999,82.36 -3.23,122.43 -83.48999,40 -111.99999,-63.79 -95.79999,-126.49 19.19,-74.36 22.86,-160.99996 36.92,-243.12996 5.79,-33.83 23.54,-74.6 3.18,-106.22 -9.27,-14.39 -28.75,-15.56 -39.85,-27.62 -11.75,-12.77 -16,-27.9 -24.46,-42.36 -19,-32.55 -31,-47.12 -29.35,-84.61 1.56,-36.23 44.69,-74.48 14.95,-111.98 z"
         id="svg_58"
         inkscape:connector-curvature="0"
         style="fill:#510000" />
      <path
         class="cls-5"
         d="m 1001.7615,412.82694 c -10.30999,-2.48 -24.24999,-1.6 -30.25999,-8.08 -18.45,-19.86 -40.9,-19.36 -64.25,-18.67 13.25,-29.09 69.68,-10.94 96.07999,20 z"
         id="svg_59"
         inkscape:connector-curvature="0"
         style="fill:#510000" />
      <path
         class="cls-5"
         d="m 1072.5615,425.49694 c -18.84,3 -34.49,6.59 -50.3,7.52 -8.88,0.53 -13.33,-6.15 -7.83,-15 8.29,-13.34 46.22,-11.49 58.13,7.48 z"
         id="svg_60"
         inkscape:connector-curvature="0"
         style="fill:#510000" />
      <path
         class="cls-6"
         d="m 878.28151,532.72694 c -18.9,26.15 -51.18,-9.66 -67.54,-22.09 -32.86,-25 -60.63,-38.65 -100.88,-51.07 -31.81,-9.82 -75.51,-15 -98.49,-41.59 -25.08,-29.06 -23.71,-60.18 -58.72,-88.82 a 74.19,74.19 0 0 1 10,37.69 c -25.69,-7.1 -68.86,-71.78 -65.26,-101.46 3.2,-26.39 7.56,-18.86 33.7,-14.26 7.46,1.31 53.95,12.52 60.45,14.74 23.23,7.94 21.45,19 41,31.74 9,5.88 22.68,2.38 34.22,10.29 34.37,23.58 17.47,101.78 59.62,111.36 29.57,6.72 43.05,-39.55 68.14,-33.14 21.49,5.5 0.89,18.35 1.39,33.56 1.7,51.57 -9.1,3.81 31.14,31.74 19.2,13.33 4.42,17.55 10.7,34.87 11.11,30.63 23.57,42.86 65.16,30 54.37,-16.85 74.19,-37.06 137.12999,-13.45 24.26,9.1 36.75,29 58.78,40.12 22.03,11.12 46.49,7.9 65,25.61 11.6,11.11 10.59,28 22.19,38.91 5.72,5.38 45.7,23.47 56.18,28.16 38,17 108.07,11.84 83.24,72.54 -7.63,18.64 -25,26.31 -31.94,48.51 -7,22.46 -2,48.39 -16.3,68.56 -23.85,33.72 -63.75,32.32 -86.79,68 -26.86,41.6 -50.28,73.49 -87.48,107.99996 -30.44,28.28 -142.30999,111.92 -87,151.46 -44.69999,37.4 -43.30999,82.36 -3.23,122.43 -83.48999,40 -111.99999,-63.79 -95.79999,-126.49 19.19,-74.36 22.86,-160.99996 36.92,-243.12996 5.79,-33.83 23.54,-74.6 3.18,-106.22 -9.27,-14.39 -28.75,-15.56 -39.85,-27.62 -11.75,-12.77 -16,-27.9 -24.46,-42.36 -19,-32.55 -31,-47.12 -29.35,-84.61 1.56,-36.23 44.69,-74.48 14.95,-111.98 z"
         id="svg_61"
         inkscape:connector-curvature="0"
         style="fill:#f5a50f" />
      <path
         class="cls-6"
         d="m 998.76151,412.82694 c -10.31,-2.48 -24.25,-1.6 -30.26,-8.08 -18.45,-19.86 -40.9,-19.36 -64.25,-18.67 13.25,-29.09 69.68,-10.94 96.07999,20 z"
         id="svg_62"
         inkscape:connector-curvature="0"
         style="fill:#f5a50f" />
      <path
         class="cls-6"
         d="m 1069.5615,425.49694 c -18.84,3 -34.49,6.59 -50.3,7.52 -8.88,0.53 -13.33,-6.15 -7.83,-15 8.29,-13.34 46.22,-11.49 58.13,7.48 z"
         id="svg_63"
         inkscape:connector-curvature="0"
         style="fill:#f5a50f" />
    </g>
    <flowRoot
       xml:space="preserve"
       id="flowRoot7585"
       style="font-style:normal;font-weight:normal;font-size:266.66665649px;line-height:1.25;font-family:sans-serif;letter-spacing:0px;word-spacing:0px;fill:#000000;fill-opacity:1;stroke:none"
       transform="matrix(0.31751066,0,0,0.6686364,-235.35372,-195.94385)"><flowRegion
         id="flowRegion7587"
         style="font-size:266.66665649px"><rect
           id="rect7589"
           width="1808.175"
           height="502.10959"
           x="1509.2312"
           y="376.66275"
           style="font-size:266.66665649px" /></flowRegion><flowPara
         id="flowPara7591"
         style="font-style:normal;font-variant:normal;font-weight:normal;font-stretch:normal;font-size:306.25772095px;font-family:'TeX Gyre Schola';-inkscape-font-specification:'TeX Gyre Schola';text-align:center;text-anchor:middle;fill:#f9f9f9">III<flowSpan
   style="font-style:normal;font-variant:normal;font-weight:normal;font-stretch:normal;font-size:306.25772095px;font-family:'TeX Gyre Schola';-inkscape-font-specification:'TeX Gyre Schola';letter-spacing:0.02px;fill:#f9f9f9"
   id="flowSpan7593"> </flowSpan>LAWCN</flowPara></flowRoot>  </g>
</svg>
